<svg width="162" height="83" viewBox="0 0 162 83" fill="none" xmlns="http://www.w3.org/2000/svg">
<path d="M104.016 82.4464H81.8058L62.1965 0H85.6012L89.3262 28.4201L94.8787 55.996L101.977 28.4201L103.805 20.893L98.3929 0H121.376L126.436 28.4201L132.621 55.996L136.487 28.4201L140.634 0H162L143.867 82.4464H119.9L111.255 49.3131L104.016 82.4464Z" fill="#FF6B00"/>
<path d="M58.0019 0.0173117L80.2138 0.0205357L99.813 82.4043L76.4061 82.4009L72.6848 54.0028L67.1359 26.448L60.0325 54.001L58.2038 61.5219L63.6132 82.399L40.6281 82.3957L35.5712 53.9975L29.3896 26.4425L25.5197 53.996L21.3684 82.3929L-5.79772e-05 82.3898L18.1469 0.0115269L42.1161 0.0150059L50.7571 33.1233L58.0019 0.0173117Z" fill="#FF6B00"/>
</svg>
